<svg width="121" height="41" viewBox="0 0 121 41" fill="none" xmlns="http://www.w3.org/2000/svg">
<path d="M46.6721 30H44.4504V21.4561H36.8713V30H34.6624V11.5156H36.8713V19.4629H44.4504V11.5156H46.6721V30ZM55.4649 30.2539C54.5 30.2539 53.6114 30.0889 52.7989 29.7588C51.9948 29.4287 51.3051 28.9674 50.7295 28.375C50.154 27.7826 49.7055 27.0801 49.3838 26.2676C49.0622 25.4551 48.9014 24.5706 48.9014 23.6143V23.0811C48.9014 21.9723 49.0792 20.9821 49.4346 20.1104C49.7901 19.2301 50.264 18.4854 50.8565 17.876C51.4405 17.2751 52.1049 16.8138 52.8497 16.4922C53.6029 16.1706 54.3731 16.0098 55.1602 16.0098C56.1504 16.0098 57.0137 16.1833 57.75 16.5303C58.4948 16.8688 59.1127 17.3385 59.6036 17.9395C60.0944 18.5488 60.4584 19.264 60.6954 20.085C60.9408 20.9059 61.0635 21.7946 61.0635 22.751V23.8047H51.25V23.8936C51.3093 24.5622 51.4405 25.1504 51.6436 25.6582C51.8552 26.166 52.143 26.6146 52.5069 27.0039C52.8793 27.4186 53.3278 27.7445 53.8526 27.9814C54.3773 28.2184 54.9571 28.3369 55.5918 28.3369C56.4297 28.3369 57.1745 28.1676 57.8262 27.8291C58.4779 27.4906 59.0196 27.042 59.4512 26.4834L60.8858 27.6006C60.4288 28.2946 59.7432 28.9124 58.8292 29.4541C57.9236 29.9873 56.8021 30.2539 55.4649 30.2539ZM55.1602 17.9395C54.6862 17.9395 54.2377 18.0283 53.8145 18.2061C53.3913 18.3753 53.0105 18.625 52.6719 18.9551C52.3334 19.2936 52.0456 19.7083 51.8086 20.1992C51.5801 20.6816 51.4193 21.2402 51.3262 21.875H58.7149V21.7607C58.7149 21.3376 58.6345 20.8848 58.4737 20.4023C58.3129 19.9115 58.0886 19.4883 57.8008 19.1328C57.5131 18.7773 57.1491 18.4896 56.709 18.2695C56.2774 18.0495 55.7611 17.9395 55.1602 17.9395ZM72.7127 16.0098C73.1444 16.0098 73.593 16.0394 74.0584 16.0986C74.5324 16.1579 74.8879 16.2383 75.1249 16.3398L74.8075 18.6377C74.3504 18.5361 73.9146 18.4642 73.4999 18.4219C73.0936 18.3711 72.6662 18.3457 72.2176 18.3457C71.6421 18.3457 71.1216 18.4176 70.6561 18.5615C70.1906 18.6969 69.7844 18.9001 69.4374 19.1709C69.1242 19.4079 68.8491 19.6999 68.6122 20.0469C68.3836 20.3854 68.1932 20.7663 68.0409 21.1895V30H65.6795V16.2637H67.9139L68.0155 18.1045L68.0282 18.4473C68.5868 17.694 69.2554 17.1016 70.034 16.6699C70.8211 16.2298 71.714 16.0098 72.7127 16.0098ZM79.1061 16.2637L79.1696 17.5586C79.4489 17.0762 79.8128 16.6995 80.2614 16.4287C80.7184 16.1579 81.2685 16.0182 81.9118 16.0098C82.2757 16.0098 82.6015 16.0521 82.8893 16.1367C83.1855 16.2129 83.4437 16.3271 83.6637 16.4795C83.8245 16.598 83.9684 16.7419 84.0954 16.9111C84.2308 17.0804 84.345 17.2708 84.4381 17.4824C84.5566 17.2878 84.6963 17.1058 84.8571 16.9365C85.0179 16.7673 85.1914 16.6191 85.3776 16.4922C85.6146 16.3483 85.8769 16.234 86.1647 16.1494C86.4609 16.0648 86.7825 16.0182 87.1295 16.0098C87.6035 16.0098 88.0309 16.0817 88.4118 16.2256C88.7926 16.361 89.1142 16.5641 89.3766 16.835C89.6644 17.1396 89.8844 17.5374 90.0368 18.0283C90.1891 18.5107 90.2653 19.082 90.2653 19.7422V30H88.0309V19.7168C88.0309 19.429 87.9971 19.1751 87.9293 18.9551C87.8616 18.735 87.7643 18.5531 87.6374 18.4092C87.5019 18.2738 87.3327 18.1722 87.1295 18.1045C86.9349 18.0368 86.7064 18.0029 86.444 18.0029C86.1647 18.0029 85.9235 18.041 85.7204 18.1172C85.5172 18.1934 85.348 18.2949 85.2125 18.4219C85.0771 18.5573 84.9713 18.7139 84.8952 18.8916C84.819 19.0609 84.7682 19.2513 84.7428 19.4629C84.7428 19.5052 84.7428 19.5475 84.7428 19.5898C84.7428 19.6237 84.7428 19.666 84.7428 19.7168V30H82.5084V19.7041C82.5084 19.4163 82.4746 19.1624 82.4069 18.9424C82.3476 18.7223 82.2503 18.5404 82.1149 18.3965C81.9879 18.2611 81.8271 18.1637 81.6325 18.1045C81.4463 18.0368 81.2262 18.0029 80.9723 18.0029C80.693 18.0029 80.4476 18.0368 80.236 18.1045C80.0329 18.1637 79.8594 18.2526 79.7155 18.3711C79.6055 18.4642 79.5081 18.57 79.4235 18.6885C79.3473 18.807 79.2838 18.9339 79.2331 19.0693V30H76.9987V16.2637H79.1061ZM98.4106 30.2539C97.4458 30.2539 96.5571 30.0889 95.7446 29.7588C94.9405 29.4287 94.2508 28.9674 93.6752 28.375C93.0997 27.7826 92.6512 27.0801 92.3295 26.2676C92.0079 25.4551 91.8471 24.5706 91.8471 23.6143V23.0811C91.8471 21.9723 92.0249 20.9821 92.3803 20.1104C92.7358 19.2301 93.2097 18.4854 93.8022 17.876C94.3862 17.2751 95.0506 16.8138 95.7954 16.4922C96.5486 16.1706 97.3188 16.0098 98.1059 16.0098C99.0961 16.0098 99.9594 16.1833 100.696 16.5303C101.441 16.8688 102.058 17.3385 102.549 17.9395C103.04 18.5488 103.404 19.264 103.641 20.085C103.887 20.9059 104.009 21.7946 104.009 22.751V23.8047H94.1958V23.8936C94.255 24.5622 94.3862 25.1504 94.5893 25.6582C94.8009 26.166 95.0887 26.6146 95.4526 27.0039C95.825 27.4186 96.2736 27.7445 96.7983 27.9814C97.323 28.2184 97.9028 28.3369 98.5375 28.3369C99.3754 28.3369 100.12 28.1676 100.772 27.8291C101.424 27.4906 101.965 27.042 102.397 26.4834L103.831 27.6006C103.374 28.2946 102.689 28.9124 101.775 29.4541C100.869 29.9873 99.7478 30.2539 98.4106 30.2539ZM98.1059 17.9395C97.6319 17.9395 97.1834 18.0283 96.7602 18.2061C96.337 18.3753 95.9562 18.625 95.6176 18.9551C95.2791 19.2936 94.9913 19.7083 94.7543 20.1992C94.5258 20.6816 94.365 21.2402 94.2719 21.875H101.661V21.7607C101.661 21.3376 101.58 20.8848 101.419 20.4023C101.259 19.9115 101.034 19.4883 100.747 19.1328C100.459 18.7773 100.095 18.4896 99.6547 18.2695C99.2231 18.0495 98.7068 17.9395 98.1059 17.9395ZM115.785 26.3564C115.785 26.0771 115.73 25.8275 115.62 25.6074C115.51 25.3789 115.324 25.1715 115.062 24.9854C114.799 24.7992 114.452 24.6299 114.021 24.4775C113.589 24.3167 113.052 24.1729 112.408 24.0459C111.621 23.8851 110.902 23.6904 110.25 23.4619C109.607 23.2334 109.057 22.9583 108.6 22.6367C108.134 22.3236 107.775 21.9554 107.521 21.5322C107.267 21.1006 107.14 20.6012 107.14 20.0342C107.14 19.4756 107.271 18.9551 107.533 18.4727C107.796 17.9818 108.164 17.5544 108.638 17.1904C109.112 16.8265 109.675 16.5387 110.326 16.3271C110.987 16.1156 111.71 16.0098 112.497 16.0098C113.344 16.0098 114.105 16.1198 114.782 16.3398C115.46 16.5599 116.035 16.8646 116.509 17.2539C116.983 17.6432 117.347 18.1003 117.601 18.625C117.863 19.1413 117.994 19.6999 117.994 20.3008H115.646C115.646 20.0046 115.57 19.7168 115.417 19.4375C115.265 19.1497 115.053 18.8958 114.782 18.6758C114.512 18.4557 114.182 18.278 113.792 18.1426C113.411 18.0072 112.98 17.9395 112.497 17.9395C111.998 17.9395 111.558 17.9945 111.177 18.1045C110.805 18.2145 110.496 18.3626 110.25 18.5488C109.996 18.735 109.806 18.9508 109.679 19.1963C109.552 19.4417 109.489 19.6956 109.489 19.958C109.489 20.2288 109.539 20.4701 109.641 20.6816C109.742 20.8932 109.92 21.0837 110.174 21.2529C110.42 21.4222 110.75 21.5745 111.164 21.71C111.587 21.8454 112.121 21.9766 112.764 22.1035C113.61 22.2812 114.368 22.4886 115.036 22.7256C115.705 22.9541 116.268 23.2292 116.725 23.5508C117.182 23.8809 117.529 24.2617 117.766 24.6934C118.011 25.125 118.134 25.6243 118.134 26.1914C118.134 26.8008 117.994 27.3551 117.715 27.8545C117.444 28.3538 117.063 28.7812 116.573 29.1367C116.082 29.4922 115.493 29.7673 114.808 29.9619C114.122 30.1566 113.373 30.2539 112.561 30.2539C111.63 30.2539 110.8 30.1312 110.073 29.8857C109.345 29.6318 108.731 29.2975 108.232 28.8828C107.724 28.4766 107.335 28.0026 107.064 27.4609C106.801 26.9193 106.67 26.3564 106.67 25.7725H109.019C109.053 26.2549 109.18 26.6611 109.4 26.9912C109.628 27.3213 109.912 27.5879 110.25 27.791C110.58 27.9941 110.948 28.138 111.355 28.2227C111.761 28.3073 112.163 28.3496 112.561 28.3496C113.187 28.3496 113.733 28.2777 114.198 28.1338C114.664 27.9814 115.028 27.7741 115.29 27.5117C115.451 27.3509 115.574 27.1732 115.658 26.9785C115.743 26.7839 115.785 26.5765 115.785 26.3564Z" fill="#17071E"/>
<path d="M2.84654 36.0485C2.84654 36.0485 8.13975 26.1223 12.3007 20.5914C16.5045 15.0022 22.3178 9.78012 22.3178 9.78012C22.3178 9.78012 17.2832 12.6526 11.5865 20.2214C6.9006 26.447 5.94257 28.7322 5.95414 28.7537C5.8893 28.8467 4.46981 25.0577 6.18392 21.438C7.83137 17.9574 8.6374 17.0411 8.6374 17.0411C8.61291 18.3758 8.52156 19.7321 9.28271 20.8122C9.18042 20.6453 9.68343 16.0842 9.94479 15.5815C10.2994 14.8994 13.2944 11.5922 13.3254 11.6517C12.8968 13.8841 13.0813 14.7486 13.3981 15.8586C13.3218 15.8837 14.1315 11.0798 14.9908 10.2847C16.5363 8.85986 22.925 4.66697 26.5111 6.56299C28.106 7.40706 25.5868 12.5461 24.7905 13.038C24.2304 13.3837 19.599 14.646 19.517 14.6078C20.8894 14.9629 22.5539 14.6949 24.1584 14.5515C24.188 14.5594 21.2708 18.9437 20.6937 19.217C20.3319 19.389 15.1268 20.392 15.0029 20.3343C16.5248 20.7551 18.2544 20.6328 19.9953 20.4785C19.9953 20.4785 17.5543 23.9576 16.276 24.5813C15.1918 25.1116 11.7051 25.8521 11.697 25.8483C12.9231 26.1314 14.2362 26.0129 15.5481 25.9055C13.6348 27.9691 11.2241 29.3571 7.98374 29.6234L4.62035 35.185L2.84654 36.0485Z" fill="black"/>
</svg>
